PathFileType	4	(X/Y/Z)	G:\マイドライブ\biomec\experimentalData\240725\CJ1.trc
DataRate	CameraRate	NumFrames	NumMarkers	Units	OrigDataRate	OrigDataStartFrame	OrigNumFrames
200.00	200.00	      5	52	mm	200.00	792	      1582
Frame#	Time	handR			wrRI			wrRO			elbRI			elbRO			shRF			shRU			shRB			handL			wrLI			wrLO			elbLI			elbLO			shLF			shLU			shLB			toeR			baRI			baRO			heelR			anRI			anRO			knRI			knRO			troR			toeL			baLI			baLO			heelL			anLI			anLO			knLI			knLO			troL			head			earR			earL			clav			c7			ribR			ribL			xiph			ASISR			ASISL			PSISR			PSISL			t8			t11			L1			L3			LS			COX			
		X1	Y1	Z1	X2	Y2	Z2	X3	Y3	Z3	X4	Y4	Z4	X5	Y5	Z5	X6	Y6	Z6	X7	Y7	Z7	X8	Y8	Z8	X9	Y9	Z9	X10	Y10	Z10	X11	Y11	Z11	X12	Y12	Z12	X13	Y13	Z13	X14	Y14	Z14	X15	Y15	Z15	X16	Y16	Z16	X17	Y17	Z17	X18	Y18	Z18	X19	Y19	Z19	X20	Y20	Z20	X21	Y21	Z21	X22	Y22	Z22	X23	Y23	Z23	X24	Y24	Z24	X25	Y25	Z25	X26	Y26	Z26	X27	Y27	Z27	X28	Y28	Z28	X29	Y29	Z29	X30	Y30	Z30	X31	Y31	Z31	X32	Y32	Z32	X33	Y33	Z33	X34	Y34	Z34	X35	Y35	Z35	X36	Y36	Z36	X37	Y37	Z37	X38	Y38	Z38	X39	Y39	Z39	X40	Y40	Z40	X41	Y41	Z41	X42	Y42	Z42	X43	Y43	Z43	X44	Y44	Z44	X45	Y45	Z45	X46	Y46	Z46	X47	Y47	Z47	X48	Y48	Z48	X49	Y49	Z49	X50	Y50	Z50	X51	Y51	Z51	X52	Y52	Z52	

792	3.955	592.18555	750.99872	968.37518	548.82349	681.22949	973.34784	525.92877	731.18719	1022.66119	473.57938	616.14832	1203.13953	522.14606	552.74780	1188.06970	776.15222	739.04108	1261.32422	676.08990	718.23669	1314.01563	740.13080	715.17590	1314.07251	593.28058	1041.26746	963.03430	541.29382	1114.83679	978.20941	543.67432	1056.54431	1029.42261	481.25998	1175.92651	1205.34167	528.89124	1241.80237	1183.61768	775.13342	1044.93738	1268.25122	738.48944	1072.81458	1319.44983	659.20087	1059.03308	1307.25647	703.05573	728.36810	34.06587	625.95386	785.54675	34.11344	592.62610	664.95331	50.85148	429.31476	775.75598	95.25990	540.85516	809.15930	134.27295	514.52936	716.10950	141.38766	729.64490	811.78845	447.13547	728.99359	698.14618	449.72498	524.97571	717.42651	796.45258	722.83936	1071.90576	36.84642	660.54620	1015.74866	47.34775	619.77563	1122.07642	53.76080	451.16641	1026.61597	95.12680	575.35156	991.82867	151.94376	534.74420	1079.35132	143.66739	740.18524	993.76245	464.20688	726.02399	1109.95264	472.56348	512.20184	1065.44214	788.92712	688.45190	909.18799	1537.54822	797.77759	821.12256	1410.45288	797.92603	982.19574	1402.63660	802.72943	898.97510	1239.95715	694.20819	902.74884	1339.77686	632.14886	787.62250	972.25427	623.70953	1007.67651	971.48816	765.79181	899.13910	1071.03125	588.82971	790.28564	857.56903	579.30469	1010.02777	862.63336	423.66763	834.72491	921.40009	423.77545	954.72742	923.68378	554.05518	899.41211	1179.18103	500.92471	900.69641	1063.99097	476.35123	902.33728	1008.83258	448.50488	896.29822	962.28119	412.24957	895.62701	917.40948	367.59647	890.59344	803.58929	
793	3.960	594.19080	751.07147	981.12561	550.70068	681.67078	985.25592	527.18890	731.64905	1034.66370	473.27304	615.68433	1213.75378	522.03271	552.67651	1199.55774	773.68512	739.00146	1278.96729	673.19989	718.04419	1330.00037	737.16663	715.32617	1331.16626	594.74969	1041.12073	976.72833	542.81335	1114.87146	991.75275	544.80249	1056.26843	1042.44531	479.30048	1175.22644	1217.84167	527.28265	1241.02527	1197.11304	772.38715	1044.50037	1285.63440	735.05872	1072.44360	1336.71228	655.92236	1058.66736	1322.88855	703.20532	728.32245	33.96803	626.23425	785.22534	34.66483	592.94800	664.62177	50.91803	430.39499	774.98804	97.68999	541.69983	808.04102	136.11458	515.31812	714.97577	142.63974	725.11340	810.80933	451.95050	724.21875	697.45966	455.35510	527.94373	718.31183	807.64087	722.87622	1071.93738	36.75738	660.87225	1016.03656	47.55589	619.97217	1121.92700	53.13024	452.13568	1027.08411	97.43682	576.13324	993.49121	153.77702	535.37769	1080.52197	145.14920	736.82831	995.93665	469.16519	720.53186	1111.89783	477.32504	514.58411	1065.46423	798.92163	689.35089	909.33820	1555.53088	795.71649	821.23407	1426.25806	795.53632	982.22321	1417.97986	800.04803	899.07385	1257.11523	690.85864	902.56696	1356.04187	634.04871	788.19287	986.35681	625.24902	1007.71051	985.51471	765.60028	898.84320	1087.70056	591.93329	790.42535	870.58154	582.38538	1010.79437	875.64563	426.35529	835.37317	932.67761	426.47589	955.11255	935.02344	552.08606	899.64868	1192.74219	501.19186	900.99854	1076.39539	477.40985	902.33667	1020.64874	450.37772	896.79578	973.92828	415.04349	896.05072	928.68719	371.07379	891.33032	814.89117	
794	3.965	595.71765	751.79510	993.66663	552.58441	681.99664	997.18927	528.46832	731.88397	1046.56873	473.00217	615.37561	1224.53943	522.11462	552.55725	1211.11011	771.47949	738.77325	1296.82727	670.48956	717.64130	1346.16699	734.51038	715.31342	1348.61890	596.20258	1040.88782	990.47577	544.15240	1114.71191	1005.57465	545.50903	1055.89636	1055.72656	477.56534	1174.31628	1230.26990	525.25067	1240.33533	1210.59009	769.43958	1044.01880	1302.86401	731.45209	1071.89734	1353.98108	652.40845	1058.28259	1338.79224	703.34119	728.30353	33.88134	626.28906	784.92926	35.12758	593.34399	664.21570	50.99270	431.29037	774.25110	100.18949	542.58197	806.76617	138.02795	516.27081	713.93298	144.05962	721.70007	810.08008	458.09198	719.09448	697.40259	461.39349	531.02600	719.38147	819.19507	722.90234	1071.94421	36.63287	661.06049	1016.19977	47.73518	620.47369	1122.42639	53.08676	453.56955	1027.72083	99.45279	577.01813	994.41620	155.46016	536.32178	1081.54395	146.49727	733.03497	997.96967	474.54541	715.46600	1112.78259	482.44620	517.26819	1065.93433	809.46075	690.10388	909.60999	1573.92468	793.68848	821.36328	1442.35901	793.24677	982.51306	1433.65710	797.48102	898.90509	1274.42957	686.81677	902.73688	1372.41785	635.34747	788.40027	1000.71869	626.41370	1007.64740	999.71704	765.67535	898.90875	1105.20386	595.39722	791.29822	883.28699	585.85229	1011.12695	888.76453	429.10654	836.06158	944.54742	429.20575	955.67358	946.72247	550.52338	899.68542	1206.14478	501.40030	901.10217	1088.82202	478.70221	902.84229	1032.69836	452.55045	897.28192	985.66223	417.94934	896.61151	940.23755	374.83551	891.62836	826.56531	
795	3.970	597.71686	752.01941	1006.43756	554.55316	682.61285	1008.99597	529.68134	731.93707	1058.16699	472.67816	615.33722	1235.40356	522.26697	552.84174	1222.28992	769.51721	739.03748	1315.00635	667.55060	717.24182	1362.41321	731.76349	715.08990	1366.15784	597.69574	1040.56519	1003.94305	545.52509	1114.48584	1018.88623	546.45013	1055.49097	1068.85706	475.58746	1173.36548	1242.97034	523.44293	1239.53284	1224.12366	766.37054	1043.49426	1320.17883	727.65082	1071.50024	1371.43872	648.86316	1057.83374	1354.85925	703.48724	728.23029	33.83739	626.24854	784.67725	35.55981	593.73804	663.85101	51.07612	431.75012	774.00476	102.95908	543.23157	805.23309	139.90894	516.95642	712.84338	145.77905	716.86877	809.21558	463.96335	713.16547	697.28912	467.54684	534.03210	720.25641	830.77283	722.94061	1071.96643	36.55240	661.21124	1016.37915	47.94955	620.78894	1122.89319	53.13789	454.04840	1028.92041	102.30370	577.84546	995.95581	157.08745	536.74170	1082.54065	147.82860	728.55585	999.68176	479.74228	709.71185	1113.23938	487.64160	520.00446	1066.44312	820.33502	691.83429	910.13953	1592.00354	791.70081	821.41821	1458.53687	790.65552	982.46942	1449.49023	794.56830	898.83710	1292.05811	683.25519	902.45593	1389.07617	637.14996	788.73450	1015.48126	627.79413	1007.83545	1014.30090	765.34424	898.71265	1122.42261	598.81335	792.08453	896.33575	589.08362	1011.72882	902.14325	432.28928	836.42249	956.42035	432.01440	955.86859	958.64038	548.59509	899.74738	1220.06592	501.72150	901.07874	1101.45227	480.07657	902.85437	1045.01233	454.68710	897.77087	997.68719	420.98291	897.09064	952.07825	378.53317	892.24847	838.52173	
796	3.975	599.42908	752.79962	1019.08441	556.50171	683.41309	1020.42090	531.12054	732.90088	1069.58472	472.48663	615.49866	1246.12048	522.53424	552.92041	1233.51855	767.39044	738.87793	1333.05505	664.80267	716.67554	1378.72546	728.99005	714.87256	1383.69971	599.09564	1040.64246	1017.86835	546.89893	1114.49023	1032.57373	546.99469	1055.09204	1082.32971	473.08939	1172.52258	1255.61719	521.76428	1238.77588	1237.64697	762.91626	1042.88293	1337.82581	722.97797	1070.63098	1389.77173	645.33636	1057.61401	1370.81482	703.63257	728.27368	33.80621	626.21313	784.42432	36.06463	594.11517	663.49207	51.10765	432.80936	772.92920	105.68568	543.88892	803.86804	141.68985	517.78009	711.51526	147.36476	711.19012	808.86890	469.78146	706.58856	697.55432	474.18890	537.33075	721.28949	842.49249	722.95020	1072.00317	36.46314	661.32935	1016.65735	48.16245	621.28894	1123.25488	53.19320	455.03793	1030.32849	104.86381	578.36377	997.13904	159.29631	537.59631	1084.33313	149.54108	723.54675	1001.07764	485.52979	703.58960	1113.30554	493.20956	522.76196	1067.07361	831.92371	693.10138	910.54291	1610.51721	789.57928	821.53394	1474.95703	788.28046	982.53101	1465.49390	791.58923	898.75732	1309.77734	679.69226	902.04523	1405.82593	638.75580	789.05286	1030.43872	629.18481	1007.73126	1028.93176	765.24432	898.56543	1140.03711	602.63922	792.62378	909.51056	592.56586	1012.84668	915.68604	435.64722	836.82361	968.55981	435.07394	956.37122	970.96552	547.01233	899.87616	1234.21472	502.24466	901.18292	1114.37488	481.60617	903.06396	1057.43652	457.04123	898.23041	1009.75073	424.45111	897.54108	964.13824	382.30179	892.91840	850.74884	
